HIERARCHY
ROOT joint_Root
{
  OFFSET 0 0 0
  CHANNELS 6 Xposition Yposition Zposition Zrotation Xrotation Yrotation
  JOINT Hips
  {
    OFFSET 0 93.9241 -3
    CHANNELS 6 Xposition Yposition Zposition Zrotation Xrotation Yrotation
    JOINT Spine
    {
      OFFSET 15.7357 0 0
      CHANNELS 6 Xposition Yposition Zposition Zrotation Xrotation Yrotation
      JOINT Chest
      {
        OFFSET 8.98455 -0.406207 0
        CHANNELS 6 Xposition Yposition Zposition Zrotation Xrotation Yrotation
        JOINT Neck
        {
          OFFSET 16.3773 0 0
          CHANNELS 6 Xposition Yposition Zposition Zrotation Xrotation Yrotation
          JOINT Head
          {
            OFFSET 6.45672 0 0
            CHANNELS 6 Xposition Yposition Zposition Zrotation Xrotation Yrotation
            End Site
            {
              OFFSET 0 0 0
            }
          }
        }
        JOINT Shoulder_L
        {
          OFFSET 12.9942 -0.242716 4.98039
          CHANNELS 6 Xposition Yposition Zposition Zrotation Xrotation Yrotation
          JOINT UpperArm_L
          {
            OFFSET 5.34809 0 0
            CHANNELS 6 Xposition Yposition Zposition Zrotation Xrotation Yrotation
            JOINT LowerArm_L
            {
              OFFSET 24.3286 1.87007e-05 0
              CHANNELS 6 Xposition Yposition Zposition Zrotation Xrotation Yrotation
              JOINT Hand_L
              {
                OFFSET 22.2916 0 0
                CHANNELS 6 Xposition Yposition Zposition Zrotation Xrotation Yrotation
                End Site
                {
                  OFFSET 0 0 0
                }
              }
            }
          }
        }
        JOINT Shoulder_R
        {
          OFFSET 12.9945 -0.242716 -4.98039
          CHANNELS 6 Xposition Yposition Zposition Zrotation Xrotation Yrotation
          JOINT UpperArm_R
          {
            OFFSET -5.34813 0 0
            CHANNELS 6 Xposition Yposition Zposition Zrotation Xrotation Yrotation
            JOINT LowerArm_R
            {
              OFFSET -24.3289 0.000322201 0
              CHANNELS 6 Xposition Yposition Zposition Zrotation Xrotation Yrotation
              JOINT Hand_R
              {
                OFFSET -22.2915 -0.000108084 0
                CHANNELS 6 Xposition Yposition Zposition Zrotation Xrotation Yrotation
                End Site
                {
                  OFFSET 0 0 0
                }
              }
            }
          }
        }
      }
    }
    JOINT UpperLeg_L
    {
      OFFSET -2.19248 -6.46944 0
      CHANNELS 6 Xposition Yposition Zposition Zrotation Xrotation Yrotation
      JOINT LowerLeg_L
      {
        OFFSET 39.0811 0 -1.23785e-05
        CHANNELS 6 Xposition Yposition Zposition Zrotation Xrotation Yrotation
        JOINT Foot_L
        {
          OFFSET 40.9854 0 -1.26872e-05
          CHANNELS 6 Xposition Yposition Zposition Zrotation Xrotation Yrotation
          JOINT Toes_L
          {
            OFFSET 11.7543 0 0
            CHANNELS 6 Xposition Yposition Zposition Zrotation Xrotation Yrotation
            End Site
            {
              OFFSET 0 0 0
            }
          }
        }
      }
    }
    JOINT UpperLeg_R
    {
      OFFSET -2.19251 6.46944 0
      CHANNELS 6 Xposition Yposition Zposition Zrotation Xrotation Yrotation
      JOINT LowerLeg_R
      {
        OFFSET -39.0811 -0.00228153 -0.0401928
        CHANNELS 6 Xposition Yposition Zposition Zrotation Xrotation Yrotation
        JOINT Foot_R
        {
          OFFSET -40.9854 0 0
          CHANNELS 6 Xposition Yposition Zposition Zrotation Xrotation Yrotation
          JOINT Toes_R
          {
            OFFSET -11.7543 0 0
            CHANNELS 6 Xposition Yposition Zposition Zrotation Xrotation Yrotation
            End Site
            {
              OFFSET 0 0 0
            }
          }
        }
      }
    }
  }
}
MOTION
Frames:	6
Frame Time:	0.0333333
0 0 0 0 0 -0 2.3612 84.7409 6.4601 95.3205 -2.23936 -2.20116 15.7357 5.1072e-06 -5.51765e-07 145.62 87.8909 -148.821 8.98455 -0.406207 -4.3199e-07 -5.27501 3.84107 -6.23178 16.3773 -1.3905e-06 -6.99897e-07 -15.3934 -6.30805 2.37411 6.45672 -1.25837e-06 -1.02172e-07 -7.32726 -12.0153 9.21283 12.9942 -0.242716 4.98039 -90.2966 1.42962 -93.2651 5.34809 -7.22636e-06 -6.2814e-07 -57.6784 15.1191 23.1192 24.3286 1.87007e-05 4.90208e-06 15.5308 -0.294375 -91.0683 22.2916 -9.88446e-07 4.63217e-06 11.0459 5.35945 -1.66579 12.9945 -0.242716 -4.98039 89.3361 5.9998 -98.6743 -5.34813 -1.25947e-06 -3.79883e-06 -60.4472 20.5007 16.1537 -24.3289 0.000322201 -8.65921e-06 8.63619 0.651289 -85.7201 -22.2915 -0.000108084 -4.47941e-06 41.9078 5.68181 -20.2284 -2.19248 -6.46944 -1.22534e-07 169.371 -3.8959 -22.8102 39.0811 -6.73843e-06 -1.23785e-05 0.304604 -0.206396 51.4233 40.9854 -6.48686e-06 -1.26872e-05 7.23076 0.829447 -81.702 11.7543 -2.30145e-07 3.05095e-06 -0.0795658 0.0661562 -16.5736 -2.19251 6.46944 -1.45247e-06 175.328 -3.10227 163.111 -39.0811 -0.00228153 -0.0401928 -0.644005 0.155859 75.9276 -40.9854 7.72618e-06 5.99936e-06 15.7257 -20.7761 -35.6166 -11.7543 -5.6619e-06 -5.58687e-06 0.541563 -0.606491 -21.0997 
0 0 0 0 0 -0 2.35917 84.7089 11.9933 94.6096 -1.90181 -2.32925 15.7357 5.1072e-06 -5.51765e-07 135.978 88.2861 -138.892 8.98455 -0.406207 -4.3199e-07 -5.30956 2.79404 -5.70478 16.3773 -1.3905e-06 -6.99897e-07 -15.3843 -6.11354 1.9891 6.45672 -1.25837e-06 -1.02172e-07 -6.7128 -11.1155 9.70007 12.9942 -0.242716 4.98039 -90.3884 2.1891 -94.9423 5.34809 -7.22636e-06 -6.2814e-07 -55.0919 20.3938 12.1949 24.3286 1.87007e-05 4.90208e-06 21.0138 -0.39684 -91.0334 22.2916 -9.88446e-07 4.63217e-06 9.59249 5.37396 -2.10664 12.9945 -0.242716 -4.98039 89.338 5.1819 -97.7065 -5.34813 -1.25947e-06 -3.79883e-06 -65.6654 22.8649 26.2038 -24.3289 0.000322201 -8.65921e-06 6.50433 1.32719 -78.5035 -22.2915 -0.000108084 -4.47941e-06 40.5485 5.68008 -22.5396 -2.19248 -6.46944 -1.22534e-07 170.496 -5.27244 -17.3489 39.0811 -6.73843e-06 -1.23785e-05 0.283989 -0.210079 49.1414 40.9854 -6.48686e-06 -1.26872e-05 7.85506 2.12869 -85.093 11.7543 -2.30145e-07 3.05095e-06 -0.0827754 0.0691769 -16.5734 -2.19251 6.46944 -1.45247e-06 176.431 -3.6622 156.583 -39.0811 -0.00228153 -0.0401928 -0.716248 0.128873 79.2752 -40.9854 7.72618e-06 5.99936e-06 16.4219 -23.6116 -42.653 -11.7543 -5.6619e-06 -5.58687e-06 0.56144 -0.630698 -21.2739 
0 0 0 0 0 -0 1.92078 86.1183 17.8342 92.9079 -0.181482 -3.14803 15.7357 5.1072e-06 -5.51765e-07 116.692 89.0761 -118.853 8.98455 -0.406207 -4.3199e-07 -6.09146 1.08982 -4.26937 16.3773 -1.3905e-06 -6.99897e-07 -15.9127 -6.17833 1.14081 6.45672 -1.25837e-06 -1.02172e-07 -5.80851 -10.1078 9.79637 12.9942 -0.242716 4.98039 -90.1462 1.0745 -97.282 5.34809 -7.22636e-06 -6.2814e-07 -53.9913 22.8143 3.13686 24.3286 1.87007e-05 4.90208e-06 16.4351 -1.47656 -95.009 22.2916 -9.88446e-07 4.63217e-06 9.63106 5.35061 -1.39726 12.9945 -0.242716 -4.98039 89.5039 3.20841 -96.1956 -5.34813 -1.25947e-06 -3.79883e-06 -71.4654 26.3865 37.5629 -24.3289 0.000322201 -8.65921e-06 3.71263 0.963307 -75.4239 -22.2915 -0.000108084 -4.47941e-06 40.4325 5.67649 -23.6552 -2.19248 -6.46944 -1.22534e-07 173.165 -4.57174 -9.57796 39.0811 -6.73843e-06 -1.23785e-05 0.218747 -0.223901 40.8183 40.9854 -6.48686e-06 -1.26872e-05 7.72316 3.58594 -84.4717 11.7543 -2.30145e-07 3.05095e-06 0.0341481 -0.0466642 -17.3046 -2.19251 6.46944 -1.45247e-06 179.013 -3.317 152.057 -39.0811 -0.00228153 -0.0401928 -0.604585 0.148851 75.6516 -40.9854 7.72618e-06 5.99936e-06 14.8546 -25.016 -49.6087 -11.7543 -5.6619e-06 -5.58687e-06 0.553229 -0.620665 -21.2017 
0 0 0 0 0 -0 1.17406 88.5068 23.8366 90.2978 1.6955 -4.64116 15.7357 5.1072e-06 -5.51765e-07 17.1866 89.2193 -18.1352 8.98455 -0.406207 -4.3199e-07 -7.3165 -1.36363 -1.98776 16.3773 -1.3905e-06 -6.99897e-07 -16.6495 -6.24968 0.647893 6.45672 -1.25837e-06 -1.02172e-07 -5.92551 -8.48331 9.55417 12.9942 -0.242716 4.98039 -89.9204 -0.756292 -98.9661 5.34809 -7.22636e-06 -6.2814e-07 -53.1594 22.8155 -3.97792 24.3286 1.87007e-05 4.90208e-06 12.0267 -2.20972 -100.262 22.2916 -9.88446e-07 4.63217e-06 9.59786 5.31565 -0.371552 12.9945 -0.242716 -4.98039 89.9183 0.448787 -94.646 -5.34813 -1.25947e-06 -3.79883e-06 -76.6658 30.3481 47.3014 -24.3289 0.000322201 -8.65921e-06 3.69318 1.00742 -74.77 -22.2915 -0.000108084 -4.47941e-06 38.6391 5.67435 -24.0688 -2.19248 -6.46944 -1.22534e-07 176.431 -1.63858 -3.43831 39.0811 -6.73843e-06 -1.23785e-05 0.204432 -0.30431 31.6986 40.9854 -6.48686e-06 -1.26872e-05 6.97303 3.6035 -74.4885 11.7543 -2.30145e-07 3.05095e-06 0.419453 -0.663889 -26.2166 -2.19251 6.46944 -1.45247e-06 -177.428 -3.53624 149.58 -39.0811 -0.00228153 -0.0401928 -0.403794 0.180742 65.4773 -40.9854 7.72618e-06 5.99936e-06 12.2668 -25.9838 -53.9814 -11.7543 -5.6619e-06 -5.58687e-06 0.538081 -0.602264 -21.0692 
0 0 0 0 0 -0 0.331802 91.1202 29.791 87.709 2.95026 -6.68775 15.7357 5.1072e-06 -5.51765e-07 -17.6032 87.9646 17.8715 8.98455 -0.406207 -4.3199e-07 -9.00036 -3.90582 0.230585 16.3773 -1.3905e-06 -6.99897e-07 -17.112 -5.79217 0.647403 6.45672 -1.25837e-06 -1.02172e-07 -5.98027 -6.93205 9.47435 12.9942 -0.242716 4.98039 -89.7442 -2.89681 -99.9465 5.34809 -7.22636e-06 -6.2814e-07 -52.6516 21.1734 -8.46845 24.3286 1.87007e-05 4.90208e-06 11.0876 -3.11141 -105.485 22.2916 -9.88446e-07 4.63217e-06 9.21915 5.27514 0.760541 12.9945 -0.242716 -4.98039 90.5648 -3.04554 -94.483 -5.34813 -1.25947e-06 -3.79883e-06 -81.5615 32.3487 54.5254 -24.3289 0.000322201 -8.65921e-06 4.64753 1.33253 -74.0431 -22.2915 -0.000108084 -4.47941e-06 35.9028 5.67302 -24.3516 -2.19248 -6.46944 -1.22534e-07 -179.99 0.741385 -0.0354367 39.0811 -6.73843e-06 -1.23785e-05 -0.000976245 0.0271541 24.4174 40.9854 -6.48686e-06 -1.26872e-05 2.95639 3.29818 -59.3233 11.7543 -2.30145e-07 3.05095e-06 2.45154 -0.894034 -35.6069 -2.19251 6.46944 -1.45247e-06 -174.369 -4.59952 149.289 -39.0811 -0.00228153 -0.0401928 -0.210265 0.178053 49.6532 -40.9854 7.72618e-06 5.99936e-06 9.76745 -26.9614 -56.6979 -11.7543 -5.6619e-06 -5.58687e-06 0.548607 -0.615054 -21.1614 
0 0 0 0 0 -0 -0.0999206 93.1712 35.7777 87.3294 3.23948 -7.89207 15.7357 5.1072e-06 -5.51765e-07 -22.7283 86.8807 23.3295 8.98455 -0.406207 -4.3199e-07 -10.1771 -5.82221 0.688246 16.3773 -1.3905e-06 -6.99897e-07 -17.6617 -5.22512 0.735897 6.45672 -1.25837e-06 -1.02172e-07 -5.14887 -5.4909 9.84273 12.9942 -0.242716 4.98039 -89.5741 -4.9906 -100.115 5.34809 -7.22636e-06 -6.2814e-07 -52.8114 18.8613 -10.3134 24.3286 1.87007e-05 4.90208e-06 9.35922 -3.3974 -109.782 22.2916 -9.88446e-07 4.63217e-06 9.15822 5.27471 0.771286 12.9945 -0.242716 -4.98039 91.0155 -6.09729 -95.5208 -5.34813 -1.25947e-06 -3.79883e-06 -85.1824 32.7433 58.9093 -24.3289 0.000322201 -8.65921e-06 4.96746 1.51465 -73.0912 -22.2915 -0.000108084 -4.47941e-06 34.1104 5.67359 -24.2524 -2.19248 -6.46944 -1.22534e-07 -179.385 0.12788 2.25926 39.0811 -6.73843e-06 -1.23785e-05 -0.0220744 0.0815834 19.9697 40.9854 -6.48686e-06 -1.26872e-05 4.94871 3.41959 -43.3538 11.7543 -2.30145e-07 3.05095e-06 1.74979 -3.20219 -43.3749 -2.19251 6.46944 -1.45247e-06 -174.336 -5.86592 152.238 -39.0811 -0.00228153 -0.0401928 -0.0662501 0.113313 30.7239 -40.9854 7.72618e-06 5.99936e-06 7.59796 -23.9978 -57.9935 -11.7543 -5.6619e-06 -5.58687e-06 0.52963 -0.592052 -20.9955 
